<?xml version="1.0" encoding="UTF-8" standalone="no"?>
<!-- Created with Inkscape (http://www.inkscape.org/) -->

<svg
   xmlns:dc="http://purl.org/dc/elements/1.1/"
   xmlns:cc="http://creativecommons.org/ns#"
   xmlns:rdf="http://www.w3.org/1999/02/22-rdf-syntax-ns#"
   xmlns:svg="http://www.w3.org/2000/svg"
   xmlns="http://www.w3.org/2000/svg"
   xmlns:sodipodi="http://sodipodi.sourceforge.net/DTD/sodipodi-0.dtd"
   xmlns:inkscape="http://www.inkscape.org/namespaces/inkscape"
   id="svg2"
   version="1.1"
   inkscape:version="0.47 r22583"
   width="526"
   height="123"
   sodipodi:docname="kermit-logo.svg"
   inkscape:export-filename="/home/lofic/kermit-logo-600x137.png"
   inkscape:export-xdpi="110.11"
   inkscape:export-ydpi="110.11">
  <metadata
     id="metadata8">
    <rdf:RDF>
      <cc:Work
         rdf:about="">
        <dc:format>image/svg+xml</dc:format>
        <dc:type
           rdf:resource="http://purl.org/dc/dcmitype/StillImage" />
        <dc:title></dc:title>
      </cc:Work>
    </rdf:RDF>
  </metadata>
  <defs
     id="defs6">
    <inkscape:perspective
       sodipodi:type="inkscape:persp3d"
       inkscape:vp_x="0 : 0.5 : 1"
       inkscape:vp_y="0 : 1000 : 0"
       inkscape:vp_z="1 : 0.5 : 1"
       inkscape:persp3d-origin="0.5 : 0.33333333 : 1"
       id="perspective10" />
    <inkscape:perspective
       id="perspective2854"
       inkscape:persp3d-origin="0.5 : 0.33333333 : 1"
       inkscape:vp_z="1 : 0.5 : 1"
       inkscape:vp_y="0 : 1000 : 0"
       inkscape:vp_x="0 : 0.5 : 1"
       sodipodi:type="inkscape:persp3d" />
    <inkscape:perspective
       id="perspective2876"
       inkscape:persp3d-origin="0.5 : 0.33333333 : 1"
       inkscape:vp_z="1 : 0.5 : 1"
       inkscape:vp_y="0 : 1000 : 0"
       inkscape:vp_x="0 : 0.5 : 1"
       sodipodi:type="inkscape:persp3d" />
    <inkscape:perspective
       id="perspective3677"
       inkscape:persp3d-origin="0.5 : 0.33333333 : 1"
       inkscape:vp_z="1 : 0.5 : 1"
       inkscape:vp_y="0 : 1000 : 0"
       inkscape:vp_x="0 : 0.5 : 1"
       sodipodi:type="inkscape:persp3d" />
    <inkscape:perspective
       id="perspective3699"
       inkscape:persp3d-origin="0.5 : 0.33333333 : 1"
       inkscape:vp_z="1 : 0.5 : 1"
       inkscape:vp_y="0 : 1000 : 0"
       inkscape:vp_x="0 : 0.5 : 1"
       sodipodi:type="inkscape:persp3d" />
    <inkscape:perspective
       id="perspective3721"
       inkscape:persp3d-origin="0.5 : 0.33333333 : 1"
       inkscape:vp_z="1 : 0.5 : 1"
       inkscape:vp_y="0 : 1000 : 0"
       inkscape:vp_x="0 : 0.5 : 1"
       sodipodi:type="inkscape:persp3d" />
    <inkscape:perspective
       id="perspective3743"
       inkscape:persp3d-origin="0.5 : 0.33333333 : 1"
       inkscape:vp_z="1 : 0.5 : 1"
       inkscape:vp_y="0 : 1000 : 0"
       inkscape:vp_x="0 : 0.5 : 1"
       sodipodi:type="inkscape:persp3d" />
    <inkscape:perspective
       id="perspective3765"
       inkscape:persp3d-origin="0.5 : 0.33333333 : 1"
       inkscape:vp_z="1 : 0.5 : 1"
       inkscape:vp_y="0 : 1000 : 0"
       inkscape:vp_x="0 : 0.5 : 1"
       sodipodi:type="inkscape:persp3d" />
    <inkscape:perspective
       id="perspective3787"
       inkscape:persp3d-origin="0.5 : 0.33333333 : 1"
       inkscape:vp_z="1 : 0.5 : 1"
       inkscape:vp_y="0 : 1000 : 0"
       inkscape:vp_x="0 : 0.5 : 1"
       sodipodi:type="inkscape:persp3d" />
    <inkscape:perspective
       id="perspective3809"
       inkscape:persp3d-origin="0.5 : 0.33333333 : 1"
       inkscape:vp_z="1 : 0.5 : 1"
       inkscape:vp_y="0 : 1000 : 0"
       inkscape:vp_x="0 : 0.5 : 1"
       sodipodi:type="inkscape:persp3d" />
    <inkscape:perspective
       id="perspective3831"
       inkscape:persp3d-origin="0.5 : 0.33333333 : 1"
       inkscape:vp_z="1 : 0.5 : 1"
       inkscape:vp_y="0 : 1000 : 0"
       inkscape:vp_x="0 : 0.5 : 1"
       sodipodi:type="inkscape:persp3d" />
    <inkscape:perspective
       id="perspective3855"
       inkscape:persp3d-origin="0.5 : 0.33333333 : 1"
       inkscape:vp_z="1 : 0.5 : 1"
       inkscape:vp_y="0 : 1000 : 0"
       inkscape:vp_x="0 : 0.5 : 1"
       sodipodi:type="inkscape:persp3d" />
    <inkscape:perspective
       id="perspective3855-9"
       inkscape:persp3d-origin="0.5 : 0.33333333 : 1"
       inkscape:vp_z="1 : 0.5 : 1"
       inkscape:vp_y="0 : 1000 : 0"
       inkscape:vp_x="0 : 0.5 : 1"
       sodipodi:type="inkscape:persp3d" />
    <inkscape:perspective
       id="perspective3886"
       inkscape:persp3d-origin="0.5 : 0.33333333 : 1"
       inkscape:vp_z="1 : 0.5 : 1"
       inkscape:vp_y="0 : 1000 : 0"
       inkscape:vp_x="0 : 0.5 : 1"
       sodipodi:type="inkscape:persp3d" />
    <inkscape:perspective
       id="perspective3908"
       inkscape:persp3d-origin="0.5 : 0.33333333 : 1"
       inkscape:vp_z="1 : 0.5 : 1"
       inkscape:vp_y="0 : 1000 : 0"
       inkscape:vp_x="0 : 0.5 : 1"
       sodipodi:type="inkscape:persp3d" />
    <inkscape:perspective
       id="perspective3930"
       inkscape:persp3d-origin="0.5 : 0.33333333 : 1"
       inkscape:vp_z="1 : 0.5 : 1"
       inkscape:vp_y="0 : 1000 : 0"
       inkscape:vp_x="0 : 0.5 : 1"
       sodipodi:type="inkscape:persp3d" />
    <inkscape:perspective
       id="perspective3952"
       inkscape:persp3d-origin="0.5 : 0.33333333 : 1"
       inkscape:vp_z="1 : 0.5 : 1"
       inkscape:vp_y="0 : 1000 : 0"
       inkscape:vp_x="0 : 0.5 : 1"
       sodipodi:type="inkscape:persp3d" />
    <inkscape:perspective
       id="perspective3974"
       inkscape:persp3d-origin="0.5 : 0.33333333 : 1"
       inkscape:vp_z="1 : 0.5 : 1"
       inkscape:vp_y="0 : 1000 : 0"
       inkscape:vp_x="0 : 0.5 : 1"
       sodipodi:type="inkscape:persp3d" />
    <inkscape:perspective
       id="perspective3996"
       inkscape:persp3d-origin="0.5 : 0.33333333 : 1"
       inkscape:vp_z="1 : 0.5 : 1"
       inkscape:vp_y="0 : 1000 : 0"
       inkscape:vp_x="0 : 0.5 : 1"
       sodipodi:type="inkscape:persp3d" />
    <inkscape:perspective
       id="perspective4136"
       inkscape:persp3d-origin="0.5 : 0.33333333 : 1"
       inkscape:vp_z="1 : 0.5 : 1"
       inkscape:vp_y="0 : 1000 : 0"
       inkscape:vp_x="0 : 0.5 : 1"
       sodipodi:type="inkscape:persp3d" />
    <inkscape:perspective
       id="perspective4206"
       inkscape:persp3d-origin="0.5 : 0.33333333 : 1"
       inkscape:vp_z="1 : 0.5 : 1"
       inkscape:vp_y="0 : 1000 : 0"
       inkscape:vp_x="0 : 0.5 : 1"
       sodipodi:type="inkscape:persp3d" />
    <inkscape:perspective
       id="perspective4277"
       inkscape:persp3d-origin="0.5 : 0.33333333 : 1"
       inkscape:vp_z="1 : 0.5 : 1"
       inkscape:vp_y="0 : 1000 : 0"
       inkscape:vp_x="0 : 0.5 : 1"
       sodipodi:type="inkscape:persp3d" />
    <inkscape:perspective
       id="perspective4299"
       inkscape:persp3d-origin="0.5 : 0.33333333 : 1"
       inkscape:vp_z="1 : 0.5 : 1"
       inkscape:vp_y="0 : 1000 : 0"
       inkscape:vp_x="0 : 0.5 : 1"
       sodipodi:type="inkscape:persp3d" />
    <inkscape:perspective
       id="perspective4321"
       inkscape:persp3d-origin="0.5 : 0.33333333 : 1"
       inkscape:vp_z="1 : 0.5 : 1"
       inkscape:vp_y="0 : 1000 : 0"
       inkscape:vp_x="0 : 0.5 : 1"
       sodipodi:type="inkscape:persp3d" />
  </defs>
  <sodipodi:namedview
     pagecolor="#ffffff"
     bordercolor="#666666"
     borderopacity="1"
     objecttolerance="10"
     gridtolerance="10"
     guidetolerance="10"
     inkscape:pageopacity="0"
     inkscape:pageshadow="2"
     inkscape:window-width="1280"
     inkscape:window-height="745"
     id="namedview4"
     showgrid="false"
     inkscape:zoom="1.0190114"
     inkscape:cx="294.0902"
     inkscape:cy="27.21466"
     inkscape:window-x="-4"
     inkscape:window-y="-3"
     inkscape:window-maximized="1"
     inkscape:current-layer="svg2" />
  <path
     style="fill:#ff9000;fill-opacity:1;stroke:none"
     d="m 455.48812,11.322556 53.45344,-0.17348 -2.77055,12.960704 -14.57643,-0.02976 -13.53557,64.277985 -16.25169,0.02976 13.97181,-64.337514 -24.21639,0 3.92538,-12.727695 z"
     id="path2844"
     sodipodi:nodetypes="ccccccccc" />
  <path
     style="fill:#000000"
     d="m 232.6473,89.289282 c -7.78575,-2.87856 -13.31222,-11.37185 -13.28842,-20.42211 0.0145,-5.52602 2.78903,-15.87913 5.67775,-21.18667 6.11433,-11.234023 14.21961,-16.147975 26.80189,-16.249057 6.92227,-0.05561 8.60767,0.292991 12.51075,2.587674 6.57745,3.866993 9.45868,9.44593 9.47579,18.348053 0.007,3.85 -0.33261,8.2375 -0.75559,9.75 l -0.76905,2.75 -18.98095,0 -18.98095,0 0,4.07693 c 0,5.50766 4.21503,9.92307 9.47274,9.92307 3.8888,0 8.36575,-1.89553 10.47254,-4.43406 0.949,-1.14348 3.15503,-1.56594 8.17716,-1.56594 3.78266,0 6.87756,0.31332 6.87756,0.69625 0,0.38294 -1.21334,2.4471 -2.69631,4.58703 -2.72072,3.926 -8.31176,8.225 -13.76784,10.58621 -4.717,2.04136 -15.41026,2.33351 -20.22707,0.55262 z m 26.69122,-36.87505 c 0,-12.434325 -17.20223,-12.66616 -21.90565,-0.29523 l -1.04485,2.74817 11.47525,0 11.47525,0 0,-2.45294 z m -115.21686,36.40216 c 0,0 0.24112,-1.931021 15.24328,-71.699212 l 1.1393,-5.25 7.79081,0 7.79081,0 -3.39831,16.142035 c -1.86906,8.878121 -3.24537,16.294967 -3.05846,16.481879 0.18692,0.186912 8.51237,-7.094033 18.50102,-16.179877 L 206.2913,11.7915 l 9.03688,0.28784 9.03687,0.28784 -18.55445,16.421469 c -13.40401,11.863098 -18.38643,16.859653 -17.94911,18.000003 0.33294,0.86819 5.23399,9.67852 10.89121,19.57852 5.65723,9.9 10.8192,19.0125 11.47103,20.25 l 1.18516,2.25 -9.2852,-0.007 -9.28518,-0.007 -6.96539,-12.74246 c -3.83097,-7.00843 -7.95021,-14.48854 -9.15387,-16.62254 l -2.18846,-3.87999 -4.876,4.56092 c -4.8732,4.55831 -4.8774,4.56788 -7.30239,16.63 l -2.42639,12.06907 -7.79375,0 -8.0106,-0.05178 z m 132.73875,-0.4615 c 3.14592,-13.895965 3.16202,-14.13772 6.33888,-28.98772 l 5.7761,-26.999996 7.18156,-0.29381 c 7.8865,-0.322649 7.76808,-0.440036 6.23265,6.17847 l -0.9012,3.884659 4.17506,-4.087324 c 4.25399,-4.164595 9.98585,-7.181995 13.64294,-7.181995 2.4312,0 2.40021,-0.513172 0.47913,7.933159 l -1.55299,6.827967 -5.48848,0.45515 c -6.05335,0.50199 -9.90687,2.76527 -12.57941,7.38825 -0.92063,1.59251 -3.1909,10.09547 -5.04506,18.89547 l -3.37119,16 c -7.30588,0.09848 -7.08752,0.0017 -14.88799,-0.01228 z m 42.45596,-7.73772 c 0.97897,-4.5375 3.7087,-17.3625 6.06606,-28.5 l 4.28612,-20.249996 7.40237,0 c 7.2015,0 7.38482,0.06106 6.75564,2.25 -0.3557,1.2375 -0.89294,3.121284 -1.19387,4.186186 -0.41145,1.456044 0.52196,1.021086 3.764,-1.75398 8.62195,-7.380074 20.60412,-7.425138 25.40665,-0.09555 l 1.58194,2.414348 5.00621,-3.443664 c 8.30011,-5.709474 18.67483,-5.983378 24.02395,-0.634259 4.70363,4.703629 4.68117,8.062263 -0.21391,31.984035 l -4.41852,21.59288 c -7.37516,0.09062 -7.41362,0.05842 -14.53989,-0.04774 6.88003,-32.807954 8.0954,-38.006627 8.0954,-39.887847 0,-7.218028 -11.71383,-7.228688 -16.44044,-0.015 -1.36088,2.07696 -9.73304,36.417677 -9.73304,39.983247 -6.79921,-0.02469 -6.66364,-0.01844 -15.14508,-0.06835 1.58011,-5.42063 8.31856,-36.90544 8.31856,-39.39786 0,-3.40548 -3.06266,-6.06853 -6.97251,-6.062748 -3.94173,0.0058 -8.42775,3.323848 -10.27364,7.598748 -1.29049,2.98868 -8.92733,35.637927 -8.92733,38.234687 l -14.62862,0.162823 1.77995,-8.25 0,4e-5 z"
     id="path2818-8"
     sodipodi:nodetypes="cssssscccccsssssscccccccccccccscccccsscccccccccccccccccccscccscccccccssscccscccssccssscccc" />
  <path
     style="fill:#ff9000;fill-opacity:1;stroke:none"
     d="m 425.68359,11.524406 16.09926,-0.0508 -16.58994,76.595588 -15.70149,0.02976 16.19217,-76.574538 z"
     id="path2842-6"
     sodipodi:nodetypes="ccccc" />
  <g
     id="g4357">
    <path
       id="path3664-1-3-6-9"
       d="m 74.4574,15.114301 c -4.024,0 -7.28125,3.10512 -7.28125,6.9375 0,3.081 2.11364,5.687952 5.03125,6.593746 l 0,15.0625 c -4.05811,0.365939 -7.77875,1.774476 -10.90625,3.96875 L 45.5824,32.864297 c -0.0535,-0.05038 -0.10096,-0.109911 -0.15625,-0.15625 0.70729,-1.069486 1.125,-2.330197 1.125,-3.6875 0,-3.832386 -3.25725,-6.937496 -7.28125,-6.937496 -4.024,0 -7.3125,3.10511 -7.3125,6.937496 0,3.832384 3.2885,6.9375 7.3125,6.9375 1.07972,0 2.07829,-0.223655 3,-0.625 0.1375,0.194844 0.28359,0.388167 0.46875,0.5625 l 15.375,14.5 c -3.03274,3.130985 -5.11298,7.140875 -5.78125,11.59375 l -12.84375,0 c -1.12132,-2.457459 -3.69465,-4.1875 -6.6875,-4.1875 -4.024,0 -7.28125,3.105116 -7.28125,6.9375 0,3.832384 3.25725,6.9375 7.28125,6.9375 3.521,0 6.4456,-2.369199 7.125,-5.53125 l 12.1875,0 c 0.23137,4.689727 2.02874,9.00525 4.875,12.4375 l -14,14.406253 c -0.31254,0.32167 -0.5275,0.69619 -0.6875,1.0625 -0.83661,-0.3189 -1.7313,-0.5 -2.6875,-0.5 -4.024,0 -7.28125,3.10511 -7.28125,6.9375 0,3.83238 3.25725,6.96875 7.28125,6.96875 4.024,0 7.28125,-3.13637 7.28125,-6.96875 0,-1.56475 -0.5513,-2.99551 -1.46875,-4.15625 0.18806,-0.13071 0.39277,-0.26282 0.5625,-0.4375 L 59.9574,81.520547 c 3.41868,2.807618 7.70804,4.643903 12.4375,5.03125 l 0,13.000003 c -2.74415,0.99518 -4.6875,3.53718 -4.6875,6.5 0,3.83238 3.25725,6.9375 7.28125,6.9375 4.024,0 7.28125,-3.10512 7.28125,-6.9375 0,-3.32134 -2.44597,-6.06862 -5.71875,-6.75 l 0,-12.781253 c 4.57855,-0.444181 8.7325,-2.245167 12.0625,-4.96875 0.17364,0.436314 0.48172,0.879717 0.875,1.25 L 104.7074,97.14555 c -0.58169,0.99687 -0.90625,2.12241 -0.90625,3.34375 0,3.83238 3.25725,6.96875 7.28125,6.96875 4.024,0 7.28125,-3.13637 7.28125,-6.96875 0,-3.83239 -3.25725,-6.9375 -7.28125,-6.9375 -1.18534,0 -2.29203,0.30296 -3.28125,0.78125 L 92.3324,79.770547 c -0.34584,-0.325622 -0.7337,-0.565213 -1.125,-0.71875 2.85747,-3.251952 4.73686,-7.353108 5.1875,-11.84375 l 12.65625,0 c 1.04307,2.617005 3.69888,4.46875 6.8125,4.46875 4.024,0 7.28125,-3.105116 7.28125,-6.9375 0,-3.832384 -3.25725,-6.9375 -7.28125,-6.9375 -3.40079,0 -6.25924,2.218123 -7.0625,5.21875 l -12.40625,0 c -0.41121,-4.09765 -2.02121,-7.871144 -4.46875,-10.96875 l 15.3125,-15.78125 c 0.97153,0.457002 2.06185,0.71875 3.21875,0.71875 4.024,0 7.28125,-3.105116 7.28125,-6.9375 0,-3.832384 -3.25725,-6.937496 -7.28125,-6.937496 -4.024,0 -7.28125,3.105112 -7.28125,6.937496 0,1.246753 0.3331,2.426319 0.9375,3.4375 l -15.09375,15.5625 c -3.43437,-2.956629 -7.78674,-4.907461 -12.625,-5.34375 l 0,-14.96875 c 3.08863,-0.804857 5.34375,-3.490596 5.34375,-6.687496 0,-3.83238 -3.25725,-6.9375 -7.28125,-6.9375 z"
       style="fill:#00003e;fill-opacity:1;stroke:#00003e;stroke-width:14;stroke-miterlimit:4;stroke-opacity:1;stroke-dasharray:none" />
    <path
       id="path3664-1-3-6"
       d="m 74.4574,15.461264 c -4.024,0 -7.28125,3.10512 -7.28125,6.9375 0,3.081 2.11364,5.687952 5.03125,6.593746 l 0,15.0625 c -4.05811,0.365939 -7.77875,1.774476 -10.90625,3.96875 L 45.5824,33.21126 c -0.0535,-0.05038 -0.10096,-0.109911 -0.15625,-0.15625 0.70729,-1.069486 1.125,-2.330197 1.125,-3.6875 0,-3.832386 -3.25724,-6.937496 -7.28125,-6.937496 -4.024,0 -7.3125,3.10511 -7.3125,6.937496 0,3.832384 3.2885,6.9375 7.3125,6.9375 1.07972,0 2.07829,-0.223655 3,-0.625 0.1375,0.194844 0.28359,0.388167 0.46875,0.5625 l 15.375,14.5 c -3.03274,3.130985 -5.11297,7.140875 -5.78125,11.59375 l -12.84375,0 c -1.12131,-2.457459 -3.69465,-4.1875 -6.6875,-4.1875 -4.024,0 -7.28125,3.105116 -7.28125,6.9375 0,3.832384 3.25725,6.9375 7.28125,6.9375 3.521,0 6.4456,-2.369199 7.125,-5.53125 l 12.1875,0 c 0.23137,4.689727 2.02874,9.00525 4.875,12.4375 l -14,14.40626 c -0.31254,0.32167 -0.5275,0.69619 -0.6875,1.0625 -0.83661,-0.3189 -1.7313,-0.5 -2.6875,-0.5 -4.024,0 -7.28125,3.10511 -7.28125,6.9375 0,3.83238 3.25725,6.96875 7.28125,6.96875 4.02401,0 7.28125,-3.13637 7.28125,-6.96875 0,-1.56475 -0.5513,-2.99551 -1.46875,-4.15625 0.18806,-0.13071 0.39277,-0.26282 0.5625,-0.4375 L 59.9574,81.86751 c 3.41868,2.807618 7.70804,4.643903 12.4375,5.03125 l 0,13.00001 c -2.74415,0.99518 -4.6875,3.53718 -4.6875,6.5 0,3.83238 3.25725,6.9375 7.28125,6.9375 4.024,0 7.28125,-3.10512 7.28125,-6.9375 0,-3.32134 -2.44597,-6.06862 -5.71875,-6.75 l 0,-12.78126 c 4.57855,-0.444181 8.7325,-2.245167 12.0625,-4.96875 0.17364,0.436314 0.48172,0.879717 0.875,1.25 l 15.21875,14.34376 c -0.58169,0.99687 -0.90625,2.12241 -0.90625,3.34375 0,3.83238 3.25725,6.96875 7.28125,6.96875 4.024,0 7.28125,-3.13637 7.28125,-6.96875 0,-3.83239 -3.25725,-6.9375 -7.28125,-6.9375 -1.18534,0 -2.29203,0.30296 -3.28125,0.78125 L 92.3324,80.11751 c -0.34584,-0.325622 -0.7337,-0.565213 -1.125,-0.71875 2.85747,-3.251952 4.73686,-7.353108 5.1875,-11.84375 l 12.65625,0 c 1.04307,2.617005 3.69888,4.46875 6.8125,4.46875 4.024,0 7.28125,-3.105116 7.28125,-6.9375 0,-3.832384 -3.25725,-6.9375 -7.28125,-6.9375 -3.40079,0 -6.25924,2.218123 -7.0625,5.21875 l -12.40625,0 C 95.98369,59.26986 94.37369,55.496366 91.92615,52.39876 l 15.3125,-15.78125 c 0.97153,0.457002 2.06185,0.71875 3.21875,0.71875 4.024,0 7.28125,-3.105116 7.28125,-6.9375 0,-3.832384 -3.25725,-6.937496 -7.28125,-6.937496 -4.024,0 -7.28125,3.105112 -7.28125,6.937496 0,1.246753 0.3331,2.426319 0.9375,3.4375 L 89.0199,49.39876 c -3.43437,-2.956629 -7.78674,-4.907461 -12.625,-5.34375 l 0,-14.96875 c 3.08863,-0.804857 5.34375,-3.490596 5.34375,-6.687496 0,-3.83238 -3.25725,-6.9375 -7.28125,-6.9375 z"
       style="fill:#ffffff;fill-opacity:1;stroke:#ffffff;stroke-width:7;stroke-miterlimit:4;stroke-opacity:1;stroke-dasharray:none" />
    <path
       id="path3664-1-3"
       d="m 74.46875,15.459942 c -4.024,0 -7.28125,3.10512 -7.28125,6.9375 0,3.08101 2.11364,5.68796 5.03125,6.59375 l 0,15.0625 c -4.05811,0.36594 -7.77875,1.77448 -10.90625,3.96875 l -15.71875,-14.8125 c -0.0535,-0.0504 -0.10096,-0.10991 -0.15625,-0.15625 0.70728,-1.06949 1.125,-2.3302 1.125,-3.6875 0,-3.83238 -3.25725,-6.9375 -7.28125,-6.9375 -4.02401,0 -7.3125,3.10512 -7.3125,6.9375 0,3.83238 3.28849,6.9375 7.3125,6.9375 1.07971,0 2.07828,-0.22366 3,-0.625 0.13749,0.19484 0.28359,0.38817 0.46875,0.5625 l 15.375,14.5 c -3.03274,3.13098 -5.11298,7.14087 -5.78125,11.59375 l -12.84375,0 c -1.12132,-2.45746 -3.69465,-4.1875 -6.6875,-4.1875 -4.02401,0 -7.28125,3.10511 -7.28125,6.9375 0,3.83238 3.25724,6.9375 7.28125,6.9375 3.521,0 6.44559,-2.3692 7.125,-5.53125 l 12.1875,0 c 0.23137,4.68973 2.02874,9.00525 4.875,12.437501 L 43,93.33495 c -0.31254,0.32167 -0.5275,0.69619 -0.6875,1.0625 -0.83662,-0.31889 -1.73131,-0.5 -2.6875,-0.5 -4.02401,0 -7.28125,3.10512 -7.28125,6.9375 0,3.83239 3.25724,6.96875 7.28125,6.96875 4.024,0 7.28125,-3.13636 7.28125,-6.96875 0,-1.56475 -0.55131,-2.9955 -1.46875,-4.15625 C 45.62555,96.54799 45.83027,96.41589 46,96.2412 L 59.96875,81.866193 c 3.41868,2.80762 7.70804,4.64391 12.4375,5.03125 l 0,13.000007 c -2.74415,0.99518 -4.6875,3.53719 -4.6875,6.5 0,3.83239 3.25725,6.9375 7.28125,6.9375 4.024,0 7.28125,-3.10511 7.28125,-6.9375 0,-3.32134 -2.44597,-6.06861 -5.71875,-6.75 l 0,-12.781257 c 4.57855,-0.44418 8.7325,-2.24516 12.0625,-4.96875 0.17364,0.43632 0.48172,0.87972 0.875,1.25 L 104.71875,97.4912 c -0.58169,0.99688 -0.90625,2.12242 -0.90625,3.34375 0,3.83239 3.25725,6.96875 7.28125,6.96875 4.024,0 7.28125,-3.13636 7.28125,-6.96875 0,-3.83238 -3.25725,-6.9375 -7.28125,-6.9375 -1.18534,0 -2.29203,0.30296 -3.28125,0.78125 L 92.34375,80.116193 c -0.34584,-0.32562 -0.7337,-0.56521 -1.125,-0.71875 2.85747,-3.25195 4.73686,-7.353111 5.1875,-11.843751 l 12.65625,0 c 1.04307,2.617 3.69888,4.46875 6.8125,4.46875 4.024,0 7.28126,-3.10512 7.28126,-6.9375 0,-3.83239 -3.25726,-6.9375 -7.28126,-6.9375 -3.40079,0 -6.25924,2.21812 -7.0625,5.21875 l -12.40625,0 c -0.41121,-4.09765 -2.02121,-7.87115 -4.46875,-10.96875 L 107.25,36.616192 c 0.97153,0.457 2.06185,0.71875 3.21875,0.71875 4.024,0 7.28125,-3.10512 7.28125,-6.9375 0,-3.83238 -3.25725,-6.9375 -7.28125,-6.9375 -4.024,0 -7.28125,3.10512 -7.28125,6.9375 0,1.24675 0.3331,2.42632 0.9375,3.4375 l -15.09375,15.5625 c -3.43437,-2.95663 -7.78674,-4.90746 -12.625,-5.34375 l 0,-14.96875 c 3.08863,-0.80486 5.34375,-3.4906 5.34375,-6.6875 0,-3.83238 -3.25725,-6.9375 -7.28125,-6.9375 z"
       style="fill:#009a00;fill-opacity:1;stroke:none" />
  </g>
  <text
     xml:space="preserve"
     style="font-size:13.75402832px;font-style:normal;font-variant:normal;font-weight:bold;font-stretch:normal;fill:#000000;fill-opacity:1;stroke:none;font-family:Arial Black;-inkscape-font-specification:'Arial Black, Bold'"
     x="180.58031"
     y="99.150841"
     id="text4340"
     transform="matrix(0.9154559,0,-0.24529467,1.0923519,0,0)"><tspan
       sodipodi:role="line"
       id="tspan4342"
       x="180.58031"
       y="99.150841">Koozebanian Enterprise Remote Management for IT</tspan></text>
</svg>
